<?xml version="1.0" encoding="UTF-8"?>
<svg version="1.1" xmlns="http://www.w3.org/2000/svg" width="512" height="512">
<path d="M0 0 C10.04716573 8.5513627 10.04716573 8.5513627 12.1171875 12.69140625 C12.7771875 12.69140625 13.4371875 12.69140625 14.1171875 12.69140625 C15.61544073 11.1711074 15.61544073 11.1711074 17.1796875 9.19140625 C28.00749556 -3.43364045 41.8083301 -12.07023436 57.1171875 -18.30859375 C58.0453125 -18.68757813 58.9734375 -19.0665625 59.9296875 -19.45703125 C85.63127845 -28.95234124 115.11273741 -27.02238014 140.1171875 -16.30859375 C149.67433128 -11.80960206 158.12021526 -6.21171027 166.1171875 0.69140625 C166.94089844 1.32175781 167.76460938 1.95210937 168.61328125 2.6015625 C173.1221174 6.36478768 176.52354269 11.07366577 180.1171875 15.69140625 C180.72949219 16.46484375 181.34179688 17.23828125 181.97265625 18.03515625 C190.20732024 29.03983307 195.83063239 42.40680455 199.1171875 55.69140625 C199.45363281 56.99078125 199.45363281 56.99078125 199.796875 58.31640625 C205.63242092 85.81541715 199.37453703 115.22481044 184.35839599 138.68544561 C181.15666724 143.4237001 177.64968861 147.61566091 173.70362854 151.74723816 C173.09567052 152.3907841 172.48771251 153.03433005 171.86133152 153.69737738 C165.11980721 160.80130577 158.21861721 167.74573463 151.29663086 174.6730957 C149.8739397 176.10043162 148.45143985 177.52795825 147.02911377 178.95565796 C143.21608352 182.7816324 139.39987845 186.60442333 135.5826118 190.42617059 C133.19370225 192.81803297 130.80537149 195.21047185 128.41720772 197.60307884 C120.93106524 205.10283245 113.44297211 212.60063008 105.95196432 220.09552413 C97.32592107 228.72606924 88.70650233 237.36316049 80.09263319 246.00585586 C73.40971486 252.71035895 66.72107361 259.40911697 60.02802378 266.10350579 C56.03883205 270.09374541 52.05210759 274.08637797 48.07133293 278.08501625 C44.33904993 281.83373001 40.59973182 285.5752779 36.85482788 289.31138229 C35.48199896 290.68343887 34.11173799 292.05807035 32.74423409 293.43543434 C30.87934133 295.31298544 29.00546227 297.18108232 27.12901306 299.04707336 C26.58893944 299.59520339 26.04886582 300.14333341 25.49242634 300.70807344 C21.96338276 304.19119439 18.93361528 306.40319012 13.94140625 306.9140625 C1.97551268 306.01716737 -7.25598281 292.47988519 -15.31005859 284.44116211 C-16.76279382 282.99470117 -18.21571533 281.54842731 -19.66880798 280.10232544 C-24.41818712 275.37387099 -29.16233667 270.64018701 -33.90625 265.90625 C-35.54665559 264.26989604 -37.18709384 262.63357483 -38.82756424 260.99728584 C-46.53589775 253.30797707 -54.2418354 245.61627716 -61.94483602 237.92162603 C-70.80751736 229.06871265 -79.67841206 220.22413772 -88.55639398 211.38656896 C-95.43846561 204.53474232 -102.31276232 197.67517646 -109.18137991 190.80986315 C-113.27465549 186.71892802 -117.37110863 182.63130452 -121.47584152 178.55186272 C-125.34085956 174.71027808 -129.19606017 170.85909691 -133.04426765 167.0006752 C-134.44917278 165.59527834 -135.8574354 164.19322751 -137.26948738 162.79501152 C-147.8374925 152.32469732 -157.76617643 141.34081381 -164.1953125 127.75390625 C-164.5145166 127.09624268 -164.8337207 126.4385791 -165.16259766 125.76098633 C-172.05320876 111.17023048 -175.27536457 96.57761697 -175.1953125 80.44140625 C-175.18967285 79.24918457 -175.1840332 78.05696289 -175.17822266 76.82861328 C-175.05772532 68.07525719 -174.40098057 60.12014238 -171.8828125 51.69140625 C-171.68413574 51.01996582 -171.48545898 50.34852539 -171.28076172 49.65673828 C-163.34512475 23.49588564 -145.92556571 1.01919367 -121.8828125 -12.30859375 C-81.90901703 -33.0965304 -34.64825449 -28.65471784 0 0 Z " fill="#000000" transform="translate(242.8828125,115.30859375)"/>
</svg>
